<svg xmlns="http://www.w3.org/2000/svg" xmlns:xlink="http://www.w3.org/1999/xlink" width="500" zoomAndPan="magnify" viewBox="0 0 375 374.999991" height="500" preserveAspectRatio="xMidYMid meet" version="1.0"><defs><g/><clipPath id="8acd82465c"><path d="M 1 114 L 374 114 L 374 238.976562 L 1 238.976562 Z M 1 114 " clip-rule="nonzero"/></clipPath><clipPath id="471ee54071"><path d="M 0 112.371094 L 375 112.371094 L 375 238.976562 L 0 238.976562 Z M 0 112.371094 " clip-rule="nonzero"/></clipPath></defs><g clip-path="url(#8acd82465c)"><path fill="#cb6ce6" d="M 358.636719 238.023438 L 16.351562 238.023438 C 8.296875 238.023438 1.769531 231.496094 1.769531 223.441406 L 1.769531 128.789062 C 1.769531 120.734375 8.296875 114.207031 16.351562 114.207031 L 358.636719 114.207031 C 366.691406 114.207031 373.21875 120.734375 373.21875 128.789062 L 373.21875 223.441406 C 373.222656 231.496094 366.691406 238.023438 358.636719 238.023438 Z M 358.636719 238.023438 " fill-opacity="1" fill-rule="nonzero"/></g><g clip-path="url(#471ee54071)"><path fill="#332294" d="M 358.636719 239.792969 L 16.351562 239.792969 C 7.335938 239.792969 0 232.457031 0 223.441406 L 0 128.789062 C 0 119.773438 7.335938 112.4375 16.351562 112.4375 L 358.636719 112.4375 C 367.652344 112.4375 374.988281 119.773438 374.988281 128.789062 L 374.988281 223.441406 C 374.988281 232.457031 367.652344 239.792969 358.636719 239.792969 Z M 16.351562 115.976562 C 9.285156 115.976562 3.539062 121.722656 3.539062 128.789062 L 3.539062 223.441406 C 3.539062 230.507812 9.285156 236.253906 16.351562 236.253906 L 358.636719 236.253906 C 365.703125 236.253906 371.453125 230.507812 371.453125 223.441406 L 371.453125 128.789062 C 371.453125 121.722656 365.703125 115.976562 358.636719 115.976562 Z M 16.351562 115.976562 " fill-opacity="1" fill-rule="nonzero"/></g><path fill="#a098cd" d="M 353.1875 229.179688 L 21.804688 229.179688 C 15.621094 229.179688 10.609375 224.167969 10.609375 217.988281 L 10.609375 134.242188 C 10.609375 128.058594 15.621094 123.050781 21.804688 123.050781 L 353.1875 123.050781 C 359.367188 123.050781 364.378906 128.058594 364.378906 134.242188 L 364.378906 217.988281 C 364.375 224.167969 359.367188 229.179688 353.1875 229.179688 Z M 353.1875 229.179688 " fill-opacity="1" fill-rule="nonzero"/><path fill="#ffbd59" d="M 353.1875 230.949219 L 21.804688 230.949219 C 14.65625 230.949219 8.84375 225.132812 8.84375 217.988281 L 8.84375 134.242188 C 8.84375 127.09375 14.65625 121.28125 21.804688 121.28125 L 353.1875 121.28125 C 360.332031 121.28125 366.144531 127.09375 366.144531 134.242188 L 366.144531 217.988281 C 366.144531 225.132812 360.332031 230.949219 353.1875 230.949219 Z M 21.804688 124.820312 C 16.609375 124.820312 12.382812 129.042969 12.382812 134.242188 L 12.382812 217.988281 C 12.382812 223.1875 16.605469 227.410156 21.804688 227.410156 L 353.1875 227.410156 C 358.382812 227.410156 362.609375 223.1875 362.609375 217.988281 L 362.609375 134.242188 C 362.609375 129.046875 358.382812 124.820312 353.1875 124.820312 Z M 21.804688 124.820312 " fill-opacity="1" fill-rule="nonzero"/><g fill="#eaeced" fill-opacity="1"><g transform="translate(121.66414, 187.433676)"><g><path d="M 24.683594 0 L 30.167969 0 L 30.167969 -27.425781 L 24.683594 -27.425781 L 24.683594 -21.941406 L 19.199219 -21.941406 L 19.199219 -16.457031 L 24.683594 -16.457031 Z M 2.742188 0 L 8.226562 0 L 8.226562 -16.457031 L 13.714844 -16.457031 L 13.714844 -21.941406 L 8.226562 -21.941406 L 8.226562 -27.425781 L 2.742188 -27.425781 Z M 13.714844 -10.96875 L 19.199219 -10.96875 L 19.199219 -16.457031 L 13.714844 -16.457031 Z M 13.714844 -10.96875 "/></g></g></g><g fill="#eaeced" fill-opacity="1"><g transform="translate(154.572177, 187.433676)"><g><path d="M 2.742188 0 L 30.167969 0 L 30.167969 -5.484375 L 8.226562 -5.484375 L 8.226562 -10.96875 L 24.683594 -10.96875 L 24.683594 -16.457031 L 8.226562 -16.457031 L 8.226562 -21.941406 L 30.167969 -21.941406 L 30.167969 -27.425781 L 2.742188 -27.425781 Z M 2.742188 0 "/></g></g></g><g fill="#eaeced" fill-opacity="1"><g transform="translate(187.480214, 187.433676)"><g><path d="M 24.683594 0 L 30.167969 0 L 30.167969 -27.425781 L 24.683594 -27.425781 L 24.683594 -10.96875 L 19.199219 -10.96875 L 19.199219 -5.484375 L 24.683594 -5.484375 Z M 2.742188 0 L 8.226562 0 L 8.226562 -16.457031 L 13.714844 -16.457031 L 13.714844 -21.941406 L 8.226562 -21.941406 L 8.226562 -27.425781 L 2.742188 -27.425781 Z M 13.714844 -10.96875 L 19.199219 -10.96875 L 19.199219 -16.457031 L 13.714844 -16.457031 Z M 13.714844 -10.96875 "/></g></g></g><g fill="#eaeced" fill-opacity="1"><g transform="translate(220.388251, 187.433676)"><g><path d="M 24.683594 -5.484375 L 8.226562 -5.484375 L 8.226562 0 L 24.683594 0 Z M 2.742188 -5.484375 L 8.226562 -5.484375 L 8.226562 -27.425781 L 2.742188 -27.425781 Z M 24.683594 -5.484375 L 30.167969 -5.484375 L 30.167969 -27.425781 L 24.683594 -27.425781 Z M 24.683594 -5.484375 "/></g></g></g></svg>